<svg xmlns="http://www.w3.org/2000/svg" viewBox="-2552.455 -11781.645 129.61 81.787">
  <g id="Logo_vo2" transform="translate(-2617.755 -11894.744)">
    <g id="Groupe_355" data-name="Groupe 355" transform="translate(65.3 113.1)">
      <g id="Groupe_354" data-name="Groupe 354" transform="translate(26.161 68.485)">
        <path id="Tracé_661" data-name="Tracé 661" d="M172.414,366.587a5.645,5.645,0,0,1-1.361,4.3A6.829,6.829,0,0,1,166.137,373a6.652,6.652,0,1,1,.111-13.3,6.808,6.808,0,0,1,5.61,3.027l-.667.528a5.878,5.878,0,1,0-5,9,6.125,6.125,0,0,0,3.8-1.416,4.359,4.359,0,0,0,1.583-3.444h-4.638v-.778h5.471Z" transform="translate(-159.5 -359.7)"/>
        <path id="Tracé_662" data-name="Tracé 662" d="M225.815,373.242h-.944L220.65,367.1h-.417v6.138H219.4V360.3h1.611a4.684,4.684,0,0,1,2.944.667,3.307,3.307,0,0,1,1.305,2.777c0,2.25-1.555,3.416-3.721,3.388Zm-4.527-6.887a3.2,3.2,0,0,0,2.277-.611,2.641,2.641,0,0,0,.916-2.055,2.47,2.47,0,0,0-1.361-2.333,5.4,5.4,0,0,0-2.305-.306h-.528v5.277h1Z" transform="translate(-202.765 -360.133)"/>
        <path id="Tracé_663" data-name="Tracé 663" d="M266.441,366.337a6.721,6.721,0,1,1-6.721-6.637A6.745,6.745,0,0,1,266.441,366.337Zm-12.608,0a5.888,5.888,0,1,0,5.888-5.888A5.945,5.945,0,0,0,253.833,366.337Z" transform="translate(-227.034 -359.7)"/>
        <path id="Tracé_664" data-name="Tracé 664" d="M322.3,360.3h.833v8.082a4.951,4.951,0,0,1-.889,3.527,4.836,4.836,0,0,1-7.054,0,4.986,4.986,0,0,1-.889-3.527V360.3h.833v7.832a5.347,5.347,0,0,0,.667,3.277,3.994,3.994,0,0,0,5.8,0,5.306,5.306,0,0,0,.666-3.277V360.3Z" transform="translate(-271.31 -360.133)"/>
        <path id="Tracé_665" data-name="Tracé 665" d="M362.633,373.242H361.8V360.3h2.277a4.033,4.033,0,0,1,2.8.75,3.454,3.454,0,0,1,1.166,2.666,3.379,3.379,0,0,1-1.083,2.555,4.228,4.228,0,0,1-2.888.833h-1.472l.028,6.138Zm1.5-6.915a3.229,3.229,0,0,0,2.277-.694,2.534,2.534,0,0,0,.861-1.944,2.581,2.581,0,0,0-.972-2.083,3.53,3.53,0,0,0-2.25-.528h-1.361v5.249Z" transform="translate(-305.618 -360.133)"/>
      </g>
      <path id="Tracé_666" data-name="Tracé 666" d="M179.608,184.417l6.193-8c3.971-5.138,8-9.359,8-15.774,0-10.359-7.582-17.08-17.385-17.524C176,125.458,160.362,113.1,143.394,113.1a35.423,35.423,0,0,0-15.3,3.5l1.5-3.471h-17.3L97.432,150.342,82.657,113.128H65.3l25.744,61.264H103.4l8.47-19.884c4.11,13.469,16.08,22.273,31.465,22.273,15.052,0,26.827-8.387,31.187-21.356l.611-.028c3.416,0,5.082,2.86,5.082,6,0,4.527-2.555,7.8-5.443,10.942l-19.607,22.051H194.91v-10l-15.3.028Zm-36.242-22.662c-9.276,0-16.857-7.526-16.857-17.829,0-8.248,7.609-15.774,16.857-15.774,9.276,0,16.857,7.526,16.857,15.774C160.251,154.23,152.642,161.756,143.366,161.756Z" transform="translate(-65.3 -113.1)"/>
    </g>
  </g>
</svg>
