<?xml version="1.0" standalone="no"?><!DOCTYPE svg PUBLIC "-//W3C//DTD SVG 1.1//EN" "http://www.w3.org/Graphics/SVG/1.1/DTD/svg11.dtd"><svg t="1494253658574" class="icon" style="" viewBox="0 0 1345 1024" version="1.1" xmlns="http://www.w3.org/2000/svg" p-id="4153" xmlns:xlink="http://www.w3.org/1999/xlink" width="262.6953125" height="200"><defs><style type="text/css"></style></defs><path d="M292.843958 16.096879h223.627379v626.824384c0 282.470414-135.392636 381.078701-351.686992 381.078702-52.940846 0-120.666973-8.823474-164.784345-23.549138l25.039589-181.000459a368.439671 368.439671 0 0 0 114.764784 17.646948c94.19655 0 153.039585-42.686538 153.039585-195.666505V16.096879z m417.803432 762.21702c58.843035 30.88216 153.039585 61.823938 248.666969 61.823939 103.020024 0 157.451322-42.686538 157.451322-108.862596 0-60.333486-47.098275-97.117835-166.274796-138.313921-164.784345-58.843035-273.64694-150.058681-273.64694-295.765244C676.843945 127.999996 819.569604 0 1052.020457 0c113.274332 0 194.235671 22.058686 253.078706 50.01956l-50.01956 179.510008a463.768964 463.768964 0 0 0-205.980431-47.098275c-97.117835 0-144.216111 45.607823-144.216111 95.627384 0 63.254772 54.431298 91.215647 183.921745 141.235207 175.098271 64.745224 255.999991 155.96087 255.999991 297.196077 0 166.274796-126.509544 307.510003-398.72565 307.510004-113.274332 0-225.117831-30.88216-281.03958-61.823939l45.607823-183.921745z" fill="#000000" p-id="4154"></path></svg>