<?xml version="1.0" standalone="no"?><!DOCTYPE svg PUBLIC "-//W3C//DTD SVG 1.1//EN" "http://www.w3.org/Graphics/SVG/1.1/DTD/svg11.dtd"><svg t="1494253666962" class="icon" style="" viewBox="0 0 1024 1024" version="1.1" xmlns="http://www.w3.org/2000/svg" p-id="4298" xmlns:xlink="http://www.w3.org/1999/xlink" width="200" height="200"><defs><style type="text/css"></style></defs><path d="M291.28 347.5104l-60.6176 0-24.8944 231.8064 56.6528 0c0 0 68.9184 3.2672 72.1664-150.184C337.8288 340.9888 291.28 347.5104 291.28 347.5104L291.28 347.5104 291.28 347.5104zM808.72 347.5104l-60.6176 0-24.896 231.8064 56.6512 0c0 0 68.9184 3.2672 72.1664-150.184C855.2688 340.9888 808.72 347.5104 808.72 347.5104L808.72 347.5104 808.72 347.5104zM259.528 665.5088l-61.3344-0.8672-17.3248 145.8272L115.2 810.4688l59.1776-548.4976c0 0 84.0688 1.9632 139.2784 0 55.2048-1.9568 109.4992 68.6336 84.0768 228.5408C367.416 681.1776 259.528 665.5088 259.528 665.5088L259.528 665.5088 259.528 665.5088zM554.6944 665.5088c0 0 15.7648-127.4608 22.6656-215.96 2.84-36.4368 15.2224-98.12-17.5872-98.2608-27.4848-0.1296-68.584-0.5136-68.584-0.5136l-34.64 314.7408-64.9536 0L452.2192 114.4l66.5088 0-16.7136 147.528 68.5616 0c0 0 90.9296-13.016 80.1024 122.8048-10.8304 135.8144-31.0336 280.7824-31.0336 280.7824l-64.9504 0L554.6944 665.5088 554.6944 665.5088zM915.1712 490.512c-30.312 190.6672-138.2 174.9984-138.2 174.9984l-61.3392-0.8672-17.3248 145.8208L632.64 810.464l59.176-548.4912c0 0 84.0704 1.9584 139.2784 0C886.3008 260.0144 940.5904 330.6032 915.1712 490.512L915.1712 490.512 915.1712 490.512zM915.1712 490.512" p-id="4299" fill="#000000"></path></svg>